<svg xmlns="http://www.w3.org/2000/svg" viewBox="0 0 200 200" fill="currentColor">
  <!-- Sunburst variant 2: 10 organic curved rays (cubic bezier sweep) -->
  <path d="M 90.1 69.6 C 83.2 45.5 90.9 17.2 107.7 2.3 C 121.0 12.3 116.9 53.0 109.9 69.6 C 118.5 46.1 141.3 27.6 163.6 25.5 C 168.6 41.4 141.4 71.9 125.9 81.2 C 146.6 67.2 175.9 65.7 195.3 77.1 C 189.9 92.9 150.0 101.6 132.0 100.0 C 157.0 100.9 181.6 116.9 190.5 137.5 C 176.9 147.1 139.5 130.6 125.9 118.8 C 145.6 134.2 156.1 161.6 151.2 183.6 C 134.5 183.3 113.9 148.0 109.9 130.4 C 116.8 154.5 109.1 182.8 92.3 197.7 C 79.0 187.7 83.1 147.0 90.1 130.4 C 81.5 153.9 58.7 172.4 36.4 174.5 C 31.4 158.6 58.6 128.1 74.1 118.8 C 53.4 132.8 24.1 134.3 4.7 122.9 C 10.1 107.1 50.0 98.4 68.0 100.0 C 43.0 99.1 18.4 83.1 9.5 62.5 C 23.1 52.9 60.5 69.4 74.1 81.2 C 54.4 65.8 43.9 38.4 48.8 16.4 C 65.5 16.7 86.1 52.0 90.1 69.6 Z" />
</svg>
