<svg xmlns="http://www.w3.org/2000/svg" viewBox="0 0 200 200" fill="currentColor">
  <!-- Sunburst variant 1: 18 sharp thin rays -->
  <polygon points="100.0,5.0 106.1,65.5 132.5,10.7 117.5,69.7 161.1,27.2 126.8,77.5 182.3,52.5 132.9,88.0 193.6,83.5 135.0,100.0 193.6,116.5 132.9,112.0 182.3,147.5 126.8,122.5 161.1,172.8 117.5,130.3 132.5,189.3 106.1,134.5 100.0,195.0 93.9,134.5 67.5,189.3 82.5,130.3 38.9,172.8 73.2,122.5 17.7,147.5 67.1,112.0 6.4,116.5 65.0,100.0 6.4,83.5 67.1,88.0 17.7,52.5 73.2,77.5 38.9,27.2 82.5,69.7 67.5,10.7 93.9,65.5" />
</svg>
