<svg xmlns="http://www.w3.org/2000/svg" viewBox="0 0 200 200" fill="currentColor">
  <!-- Sunburst variant 4: 6 wide dramatic curved rays -->
  <path d="M 85.0 74.0 C 77.3 55.4 81.0 29.0 110.2 2.5 C 124.2 25.4 121.5 60.5 115.0 74.0 C 127.2 58.1 152.0 48.0 189.5 60.1 C 176.7 83.7 145.0 98.8 130.0 100.0 C 149.9 102.6 171.0 119.0 179.3 157.6 C 152.5 158.3 123.5 138.4 115.0 126.0 C 122.7 144.6 119.0 171.0 89.8 197.5 C 75.8 174.6 78.5 139.5 85.0 126.0 C 72.8 141.9 48.0 152.0 10.5 139.9 C 23.3 116.3 55.0 101.2 70.0 100.0 C 50.1 97.4 29.0 81.0 20.7 42.4 C 47.5 41.7 76.5 61.6 85.0 74.0 Z" />
</svg>
